<svg width="22" height="22" viewBox="0 0 22 22" fill="none" xmlns="http://www.w3.org/2000/svg">
<g id="Line_black">
<g id="Line">
<path id="Combined-Shape" fill-rule="evenodd" clip-rule="evenodd" d="M11 0C4.92487 0 0 4.92487 0 11C0 17.0751 4.92487 22 11 22C17.0751 22 22 17.0751 22 11C22 4.92487 17.0751 0 11 0ZM11.1833 5.13333C14.9238 5.13333 17.9667 7.58494 17.9667 10.5984C17.9667 11.8044 17.4958 12.8905 16.5127 13.9608H16.513C15.0899 15.5871 11.9073 17.5678 11.1833 17.8707C10.4797 18.1651 10.5609 17.705 10.5931 17.5227C10.5941 17.5174 10.5949 17.5124 10.5958 17.5077C10.6129 17.4065 10.6925 16.9312 10.6925 16.9312C10.7154 16.7593 10.7391 16.4926 10.6707 16.3223C10.5946 16.1348 10.2939 16.0375 10.073 15.9902C6.81323 15.5624 4.4 13.2999 4.4 10.5984C4.4 7.58494 7.44326 5.13333 11.1833 5.13333Z" fill="#222222"/>
<path id="Fill-2" d="M9.76943 9.16669H9.29802C9.22574 9.16669 9.16699 9.22733 9.16699 9.30184V12.3315C9.16699 12.4062 9.22574 12.4667 9.29802 12.4667H9.76943C9.84171 12.4667 9.90033 12.4062 9.90033 12.3315V9.30184C9.90033 9.22733 9.84171 9.16669 9.76943 9.16669Z" fill="#222222"/>
<path id="Fill-3" d="M13.0621 9.16669H12.5659C12.4898 9.16669 12.4281 9.22733 12.4281 9.30184V11.1018L11.0154 9.2268C11.0121 9.222 11.0085 9.21747 11.0047 9.21307L11.0037 9.21227C11.001 9.20921 10.9983 9.20654 10.9955 9.20388C10.9946 9.20308 10.9938 9.20241 10.9929 9.20161C10.9906 9.19948 10.9881 9.19748 10.9856 9.19561C10.9845 9.19454 10.9833 9.19374 10.982 9.19281C10.9796 9.19121 10.9773 9.18948 10.9748 9.18801C10.9735 9.18708 10.9721 9.18628 10.9706 9.18561C10.9682 9.18415 10.9658 9.18268 10.9633 9.18148C10.9618 9.18082 10.9605 9.18002 10.959 9.17948C10.9564 9.17828 10.9538 9.17708 10.9511 9.17615C10.9495 9.17562 10.9481 9.17508 10.9466 9.17455C10.9439 9.17362 10.9412 9.17269 10.9384 9.17202C10.9369 9.17149 10.9352 9.17122 10.9336 9.17069C10.9309 9.17015 10.9283 9.16949 10.9257 9.16895C10.9238 9.16869 10.9218 9.16842 10.9199 9.16829C10.9175 9.16775 10.915 9.16762 10.9126 9.16735C10.9103 9.16709 10.908 9.16709 10.9055 9.16695C10.9038 9.16695 10.9024 9.16669 10.9007 9.16669H10.4045C10.3284 9.16669 10.2666 9.22733 10.2666 9.30184V12.3315C10.2666 12.4062 10.3284 12.4667 10.4045 12.4667H10.9007C10.9769 12.4667 11.0386 12.4062 11.0386 12.3315V10.5321L12.453 12.4095C12.4628 12.4231 12.4749 12.4342 12.488 12.443C12.4884 12.4432 12.489 12.4436 12.4894 12.444C12.4922 12.4458 12.4951 12.4475 12.4979 12.4491C12.4993 12.4499 12.5005 12.4504 12.5019 12.4511C12.5039 12.4523 12.5062 12.4534 12.5084 12.4543C12.5107 12.4552 12.5127 12.4562 12.5152 12.4571C12.5165 12.4576 12.5179 12.4582 12.5192 12.4586C12.5225 12.4598 12.5255 12.4607 12.5286 12.4616C12.5293 12.4616 12.5299 12.4619 12.5306 12.462C12.5419 12.465 12.5537 12.4667 12.5659 12.4667H13.0621C13.1384 12.4667 13.1999 12.4062 13.1999 12.3315V9.30184C13.1999 9.22733 13.1384 9.16669 13.0621 9.16669Z" fill="#222222"/>
<path id="Fill-4" d="M8.6656 11.708H7.35171V9.3021C7.35171 9.22733 7.29158 9.16669 7.21757 9.16669H6.73388C6.65974 9.16669 6.59961 9.22733 6.59961 9.3021V12.3311V12.3314C6.59961 12.3678 6.61401 12.4007 6.63714 12.425C6.63767 12.4256 6.6382 12.4263 6.63899 12.427C6.63965 12.4276 6.64031 12.4282 6.64097 12.4288C6.66516 12.4523 6.69767 12.4667 6.73375 12.4667H8.6656C8.73974 12.4667 8.79961 12.4059 8.79961 12.3311V11.8434C8.79961 11.7687 8.73974 11.708 8.6656 11.708Z" fill="#222222"/>
<path id="Fill-5" d="M15.6324 9.92534C15.7065 9.92534 15.7664 9.86483 15.7664 9.78993V9.30224C15.7664 9.22746 15.7065 9.16669 15.6324 9.16669H13.7007H13.7004C13.6642 9.16669 13.6316 9.18135 13.6074 9.20494C13.6068 9.20547 13.6062 9.20587 13.6058 9.20641C13.605 9.20721 13.6043 9.20801 13.6037 9.20881C13.5807 9.23306 13.5664 9.26585 13.5664 9.3021V9.30224V12.3313V12.3314C13.5664 12.3678 13.5808 12.4007 13.6039 12.425C13.6045 12.4256 13.6051 12.4264 13.6058 12.427C13.6063 12.4276 13.6071 12.4283 13.6078 12.4288C13.6318 12.4522 13.6645 12.4667 13.7004 12.4667H15.6324C15.7065 12.4667 15.7664 12.4059 15.7664 12.3313V11.8434C15.7664 11.7688 15.7065 11.708 15.6324 11.708H14.3186V11.1959H15.6324C15.7065 11.1959 15.7664 11.1353 15.7664 11.0605V10.5728C15.7664 10.4981 15.7065 10.4373 15.6324 10.4373H14.3186V9.92534H15.6324Z" fill="#222222"/>
</g>
</g>
</svg>
