<svg width="22" height="22" viewBox="0 0 22 22" fill="none" xmlns="http://www.w3.org/2000/svg">
<g id="Twitter_black">
<g id="Twitter">
<path id="Combined-Shape" fill-rule="evenodd" clip-rule="evenodd" d="M11 0C4.92487 0 0 4.92487 0 11C0 17.0751 4.92487 22 11 22C17.0751 22 22 17.0751 22 11C22 4.92487 17.0751 0 11 0ZM10.6936 9.32156L10.6706 8.94094C10.6013 7.95442 11.2092 7.05335 12.1709 6.7038C12.5249 6.57951 13.125 6.56397 13.5174 6.67272C13.6713 6.71933 13.9637 6.87469 14.1714 7.01451L14.5485 7.27085L14.964 7.1388C15.1948 7.06888 15.5026 6.95237 15.6411 6.87469C15.7719 6.80478 15.8873 6.76594 15.8873 6.78924C15.8873 6.9213 15.6026 7.37183 15.3641 7.6204C15.0409 7.96996 15.1332 8.00103 15.7872 7.76799C16.1797 7.63594 16.1873 7.63594 16.1104 7.78353C16.0642 7.86121 15.8257 8.13308 15.5718 8.38165C15.1409 8.80888 15.1178 8.85549 15.1178 9.21281C15.1178 9.76433 14.8562 10.914 14.5946 11.5432C14.1099 12.7239 13.0712 13.9434 12.0324 14.5571C10.5705 15.4193 8.62387 15.6368 6.98499 15.1319C6.4387 14.961 5.5 14.526 5.5 14.4483C5.5 14.425 5.78469 14.394 6.13093 14.3862C6.85419 14.3707 7.57745 14.1687 8.193 13.8114L8.60849 13.5628L8.13144 13.3997C7.45435 13.1666 6.8465 12.6307 6.69261 12.1258C6.64645 11.9626 6.66184 11.9549 7.09271 11.9549L7.53898 11.9471L7.16196 11.7684C6.71569 11.5432 6.3079 11.1625 6.10785 10.7742C5.96166 10.4945 5.77699 9.78763 5.83085 9.73326C5.84624 9.70996 6.00782 9.75656 6.19248 9.8187C6.72339 10.0129 6.79264 9.96629 6.48487 9.64004C5.9078 9.04969 5.73083 8.17192 6.00782 7.34076L6.13862 6.9679L6.64645 7.47281C7.68517 8.4904 8.90856 9.09629 10.3089 9.27496L10.6936 9.32156Z" fill="#222222"/>
</g>
</g>
</svg>
