<svg width="22" height="22" viewBox="0 0 22 22" fill="none" xmlns="http://www.w3.org/2000/svg">
<g id="Youtube_black">
<g id="Youtube">
<path id="Combined-Shape" fill-rule="evenodd" clip-rule="evenodd" d="M11 0C4.92487 0 0 4.92487 0 11C0 17.0751 4.92487 22 11 22C17.0751 22 22 17.0751 22 11C22 4.92487 17.0751 0 11 0ZM15.5841 7.21844C16.0889 7.35698 16.4865 7.76518 16.6215 8.28356C16.8667 9.22306 16.8667 11.1833 16.8667 11.1833C16.8667 11.1833 16.8667 13.1435 16.6215 14.0831C16.4865 14.6015 16.0889 15.0097 15.5841 15.1483C14.6691 15.4 11 15.4 11 15.4C11 15.4 7.33087 15.4 6.41587 15.1483C5.911 15.0097 5.5134 14.6015 5.37847 14.0831C5.13333 13.1435 5.13333 11.1833 5.13333 11.1833C5.13333 11.1833 5.13333 9.22306 5.37847 8.28356C5.5134 7.76518 5.911 7.35698 6.41587 7.21844C7.33087 6.96667 11 6.96667 11 6.96667C11 6.96667 14.6691 6.96667 15.5841 7.21844Z" fill="#222222"/>
<path id="Fill-2" d="M9.90039 13.2V9.53333L12.8337 11.3667L9.90039 13.2Z" fill="#222222"/>
</g>
</g>
</svg>
